<svg xmlns="http://www.w3.org/2000/svg" width="30" height="37" viewBox="0 0 30 37">
  <defs>
    <style>
      .cls-1 {
        fill: #fff;
      }
    </style>
  </defs>
  <g id="ic" transform="translate(11942 10056)">
    <path id="패스_1718" data-name="패스 1718" class="cls-1" d="M-545.57,2288.263a7.131,7.131,0,0,1-7.123-7.122,7.131,7.131,0,0,1,7.123-7.123,7.131,7.131,0,0,1,7.123,7.123A7.131,7.131,0,0,1-545.57,2288.263Zm0-11.4a4.278,4.278,0,0,0-4.274,4.274,4.278,4.278,0,0,0,4.274,4.273,4.278,4.278,0,0,0,4.274-4.273A4.278,4.278,0,0,0-545.57,2276.867Z" transform="translate(-11381.43 -12322.434)"/>
    <path id="패스_1719" data-name="패스 1719" class="cls-1" d="M-544.359,2304.352a1.47,1.47,0,0,1-.921-.323c-.575-.464-14.079-11.458-14.079-21.971a14.872,14.872,0,0,1,15-14.706,14.872,14.872,0,0,1,15,14.706c0,10.513-13.5,21.508-14.079,21.971A1.469,1.469,0,0,1-544.359,2304.352Zm0-34.153a11.993,11.993,0,0,0-12.1,11.859c0,7.726,9.125,16.374,12.1,18.986,2.972-2.614,12.1-11.272,12.1-18.986A11.993,11.993,0,0,0-544.359,2270.2Z" transform="translate(-11382.641 -12323.352)"/>
  </g>
</svg>
