<svg id="그룹_3853" data-name="그룹 3853" xmlns="http://www.w3.org/2000/svg" width="128" height="40" viewBox="0 0 128 40">
    <defs>
        <style>
            .cls-1{fill:#fff}
        </style>
    </defs>
    <g id="그룹_2658" data-name="그룹 2658">
        <g id="그룹_2653" data-name="그룹 2653" transform="translate(2 1)">
            <path id="패스_2155" data-name="패스 2155" class="cls-1" d="M748.088 355.174c0-1.809-.021-18.282-.031-20.536a2.543 2.543 0 0 0-.073-.893.178.178 0 0 0-.214-.074c-.3.123-8.053 3.6-8.053 3.6s-.137.047-.137.107a.15.15 0 0 0 .147.161c1.62.594 1.959 2.386 1.953 3.882v13.7c0 1.677-.4 2.727-1 3.174a.14.14 0 0 0 .079.251l8.355.047a.157.157 0 0 0 .082-.286c-.676-.47-1.108-1.5-1.108-3.133z" transform="translate(-644.138 -321.199)"/>
            <path id="패스_2156" data-name="패스 2156" class="cls-1" d="M535.483 317.727a4.14 4.14 0 0 1-3.857 1.949l-7.747-.031.021-12.915 9.84-.048c3.065 0 5.348 3.08 5.552 3.457.191.351.382.232.38.042v-4.958a1.209 1.209 0 0 0-1.26-1.1h-22.093c-.188 0-.251.283-.1.407.547.464 1.12 1.508 1.12 4.244l.006 18.888c0 3.313.005 5.472-.008 8.715a9.278 9.278 0 0 1-.216 2.1 4.574 4.574 0 0 1-.839 1.868.159.159 0 0 0 .131.255h8.31a.183.183 0 0 0 .145-.3 3.861 3.861 0 0 1-.828-1.868 9.863 9.863 0 0 1-.138-1.66c-.023-2.374-.022-13.576-.022-13.576s7.432.046 8.026.046a4.652 4.652 0 0 1 3.6 2.036.194.194 0 0 0 .352-.109v-7.355a.194.194 0 0 0-.375-.087z" transform="translate(-516.134 -303.432)"/>
            <path id="패스_2157" data-name="패스 2157" class="cls-1" d="M637.361 350.507c.762 0 .832-.175.838-.526a11.259 11.259 0 0 0-3.747-9.131 10.862 10.862 0 0 0-13.179.441c-4.221 3.733-5.053 9.872-2.627 14.973a9.907 9.907 0 0 0 8.672 5.461c4.5.219 8.326-1.92 9.592-5.074.124-.309.076-.606-.034-.661-.161-.08-.326.107-.409.18-1.893 1.682-7.788 2.8-10.735.791-2.178-1.483-2.971-3.779-3.088-7.5-.068-6.348 2.645-8.635 5.4-8.635 3.409 0 4.994 3.333 5.2 5.8.025.3.111 1.576.088 1.758l-8.611.011s-.194.008-.159.188c.03.158.581 1.929 1.266 1.929z" transform="translate(-574.093 -324.161)"/>
            <path id="패스_2158" data-name="패스 2158" class="cls-1" d="M781.017 348.271c.038 2.2.111 3.8 2.271 3.849a2.988 2.988 0 0 0 1.68-.525c.6-.418.745-.639.9-.547s.141.3.064.518c-.635 1.757-2.39 3.579-6.259 3.549-2.313-.018-5.422-1.653-5.422-4.938 0-2.5-.033-14.158-.033-14.158a2.456 2.456 0 0 0-1.427-2.23 5.683 5.683 0 0 0-1.881-.287c-.238 0-.2-.207-.11-.3s8.882-6.681 8.882-6.681h1.257v.116c0 .018-.053 2.476-.053 3.389 0 1.251.126 1.6.409 1.906a1.59 1.59 0 0 0 1.226.458l3.383.026v1.917s-3.46.007-3.685 0a.946.946 0 0 0-.837.421 2.107 2.107 0 0 0-.389 1.334v3.819z" transform="translate(-661.99 -317.115)"/>
            <path id="패스_2159" data-name="패스 2159" class="cls-1" d="M741.705 313.491a.482.482 0 0 1 .007-.07l.006-.034c.172-.991.408-2.347 3.219-2.834 2.829-.353 4.209-1.348 4.209-3.041a3.248 3.248 0 0 0-2.866-3.136 4.769 4.769 0 0 0-.683-.05 4.973 4.973 0 0 0-4.554 3.472 7.806 7.806 0 0 0 .648 6.113z" transform="translate(-644.777 -303.55)"/>
            <path id="패스_2160" data-name="패스 2160" class="cls-1" d="M696.653 338.468c-1.452.255-1.835-.684-1.836-2.246v-32.231c0-.278 0-.54-.012-.8-.023-.383 0-.521-.151-.644a.846.846 0 0 0-.625.047c-.5.188-5.78 2.061-6.551 2.3-.279.086-.184.24-.135.266a2.64 2.64 0 0 1 1.263 2.2c0 2.708-.014 6.4 0 8.656v3.521a13.73 13.73 0 0 0-1.754-.961 10.442 10.442 0 0 0-8.745.277c-5.659 2.568-6.915 10.816-4.479 16.294a8.382 8.382 0 0 0 7.811 5.071 8.726 8.726 0 0 0 7.116-3.5l.03.478c.13 1.044.819 3.41 4.4 3.077a7.454 7.454 0 0 0 3.354-1.006s.674-.462.6-.66a.233.233 0 0 0-.286-.139zm-8.048-5.308a4.4 4.4 0 0 1-4.2 4.038c-2.563 0-6.29-1.025-6.29-8.629 0-9.588 5.865-8.869 5.865-8.869 4.387.1 4.621 3.848 4.621 3.848s.278 7.935.005 9.612z" transform="translate(-605.694 -302.511)"/>
            <path id="패스_2161" data-name="패스 2161" class="cls-1" d="M589.511 341.338a3.581 3.581 0 0 0-2.414-2.786 4.637 4.637 0 0 0-3.085.164c-.8.326-2.724.923-5.431 4.988v-2.562a11.736 11.736 0 0 0-.216-2.064 1.044 1.044 0 0 0-1.333-.855l-7.3 2.739a.12.12 0 0 0-.007.224 3.944 3.944 0 0 1 2.236 3.333c0 3.281.023 13.3.023 13.3 0 1.6-.124 2.619-.841 3a.119.119 0 0 0 .053.224c1.964.008 6.525.037 8.358.044a.118.118 0 0 0 .062-.219c-.691-.427-1.063-1.479-1.063-3.207 0-4.059 0-9.664.021-10.989v-.673a5.524 5.524 0 0 1 2.357-3.157 2.854 2.854 0 0 1 1.3-.226c1.141.106 1.954 1.015 2.74 1.653a3.059 3.059 0 0 0 1.67.628c2.582.244 3.103-2.377 2.87-3.559z" transform="translate(-546.797 -323.789)"/>
        </g>
        <path id="사각형_521" data-name="사각형 521" style="fill:none" d="M0 0h128v40H0z"/>
    </g>
</svg>
