<svg xmlns="http://www.w3.org/2000/svg" width="52" height="52" viewBox="0 0 52 52">
  <g id="그룹_5544" data-name="그룹 5544" transform="translate(-618 -13211)">
    <g id="사각형_350" data-name="사각형 350" transform="translate(618 13211)" fill="#fff" stroke="#004b29" stroke-width="2.5">
      <rect width="52" height="52" rx="8" stroke="none"/>
      <rect x="1.25" y="1.25" width="49.5" height="49.5" rx="6.75" fill="none"/>
    </g>
    <path id="패스_1933" data-name="패스 1933" d="M768.384,208.441a10.7,10.7,0,0,1-2.622.747c.422-.071,1.041-.834,1.289-1.143a4.8,4.8,0,0,0,.87-1.587c.023-.045.039-.1-.005-.136a.15.15,0,0,0-.139.011,13.364,13.364,0,0,1-3.109,1.189.209.209,0,0,1-.214-.056,2.5,2.5,0,0,0-.271-.278,5.507,5.507,0,0,0-1.505-.923,5.241,5.241,0,0,0-2.309-.372,5.521,5.521,0,0,0-2.191.619,5.656,5.656,0,0,0-1.768,1.444,5.427,5.427,0,0,0-1.055,2.114,5.726,5.726,0,0,0-.056,2.231c.017.125.005.142-.107.125-4.269-.635-7.807-2.163-10.68-5.436-.125-.143-.192-.143-.295.011a5.415,5.415,0,0,0,.923,6.4c.21.2.425.4.656.578a5.441,5.441,0,0,1-2.061-.578c-.125-.078-.187-.034-.2.108a3.255,3.255,0,0,0,.034.611,5.477,5.477,0,0,0,3.375,4.366,3.2,3.2,0,0,0,.684.21,6.1,6.1,0,0,1-2.021.062c-.147-.028-.2.046-.147.187a5.684,5.684,0,0,0,4.246,3.556c.192.034.385.034.578.079-.012.017-.023.017-.034.034-.477.727-2.13,1.268-2.9,1.537a10.384,10.384,0,0,1-4.4.564c-.237-.035-.287-.032-.351,0s-.008.1.068.158c.3.2.606.374.917.544a14.521,14.521,0,0,0,2.944,1.178c5.291,1.461,11.251.387,15.224-3.56,3.12-3.1,4.213-7.375,4.213-11.655,0-.168.2-.26.315-.349a10.3,10.3,0,0,0,2.073-2.155.656.656,0,0,0,.137-.413v-.022C768.49,208.373,768.489,208.393,768.384,208.441Z" transform="translate(-109.569 13020.449)" fill="#004b29"/>
  </g>
</svg>
